<?xml version="1.0" encoding="UTF-8" standalone="no"?><!DOCTYPE svg PUBLIC "-//W3C//DTD SVG 1.1//EN" "http://www.w3.org/Graphics/SVG/1.1/DTD/svg11.dtd"><svg xmlns="http://www.w3.org/2000/svg" xmlns:xlink="http://www.w3.org/1999/xlink" version="1.1" width="672" height="525" viewBox="0 0 672 525"><g><clipPath id="cp0"><path d="M 66 461 L 606 461 L 606 461.52 L 66 461.52 Z "/></clipPath><g clip-path="url(#cp0)"><path stroke-width="1" stroke-linecap="butt" stroke-miterlimit="3.25" stroke-linejoin="miter" fill="none" stroke="#b3b3b3" d="M 66 461.645 L 606 461.645 "/></g><path stroke-width="1" stroke-linecap="butt" stroke-miterlimit="3.25" stroke-linejoin="miter" fill="none" stroke="#b3b3b3" d="M 66 382.066 L 606 382.066 "/><path stroke-width="1" stroke-linecap="butt" stroke-miterlimit="3.25" stroke-linejoin="miter" fill="none" stroke="#b3b3b3" d="M 66 302.488 L 606 302.488 "/><path stroke-width="1" stroke-linecap="butt" stroke-miterlimit="3.25" stroke-linejoin="miter" fill="none" stroke="#b3b3b3" d="M 66 222.906 L 606 222.906 "/><path stroke-width="1" stroke-linecap="butt" stroke-miterlimit="3.25" stroke-linejoin="miter" fill="none" stroke="#b3b3b3" d="M 66 143.328 L 606 143.328 "/><clipPath id="cp1"><path d="M 66 63.602 L 606 63.602 L 606 65 L 66 65 Z "/></clipPath><g clip-path="url(#cp1)"><path stroke-width="1" stroke-linecap="butt" stroke-miterlimit="3.25" stroke-linejoin="miter" fill="none" stroke="#b3b3b3" d="M 66 63.75 L 606 63.75 "/></g><path stroke-width="1.6" stroke-linecap="butt" stroke-miterlimit="3.25" stroke-linejoin="miter" fill="none" stroke="#ff0000" d="M 82.961 385.43 L 88.695 412.02 L 94.367 406.582 L 100.043 418.488 L 105.777 415.656 L 111.516 434.258 L 117.125 427.711 L 122.801 432.105 L 128.535 441.203 L 134.273 442.984 L 139.883 436.324 L 145.559 435.891 L 151.293 444.445 L 157.031 440.371 L 162.641 429.32 L 168.316 432.406 L 174.051 436.949 L 179.789 443.074 L 185.461 398.121 L 191.137 388.668 L 196.871 344.387 L 202.609 265.348 L 208.219 219.039 L 213.895 179.855 L 219.629 182.395 L 225.367 162.926 L 230.977 143.902 L 236.652 144.391 L 242.387 147.281 L 248.125 159.121 L 253.734 162.438 L 259.41 164.066 L 265.145 183.773 L 270.883 191.383 L 276.555 204.625 L 282.23 214.047 L 287.965 220.855 L 293.703 247.023 L 299.313 251.199 L 304.988 263.961 L 310.723 280.984 L 316.457 304.289 L 322.07 312.195 L 327.742 326.453 L 333.48 348.441 L 339.215 365.934 L 344.828 369.254 L 350.5 377.629 L 356.238 388.547 L 361.973 389.781 L 367.648 377.23 L 373.32 375.551 L 379.059 377.695 L 384.793 378.984 L 390.406 383.605 L 396.078 384.875 L 401.816 393.426 L 407.551 396.039 L 413.164 393.789 L 418.836 391.664 L 424.574 391.742 L 430.309 391.348 L 435.922 383.566 L 441.594 377.516 L 447.332 374.063 L 453.066 378.914 L 458.742 367.867 L 464.414 338.398 L 470.152 343.41 L 475.887 351.914 L 481.5 347.754 L 487.172 350.965 L 492.91 365.73 L 498.645 381.73 L 504.258 414.074 L 509.93 424.316 L 515.668 392.285 L 521.402 398.668 L 527.016 394.547 L 532.688 386.445 L 538.426 377.809 L 544.16 370.266 L 549.832 354.531 L 555.508 344.992 L 561.242 342.246 L 566.98 344.543 L 572.59 331.074 "/><path stroke-width="1" stroke-linecap="butt" stroke-miterlimit="3.25" stroke-linejoin="miter" fill="none" stroke="#000000" d="M 606 461.645 L 66 461.645 "/><path stroke-width="1" stroke-linecap="butt" stroke-miterlimit="3.25" stroke-linejoin="miter" fill="none" stroke="#000000" d="M 66 461.645 L 66 63.75 "/><path stroke-width="1" stroke-linecap="butt" stroke-miterlimit="3.25" stroke-linejoin="miter" fill="none" stroke="#000000" d="M 66 63.75 L 606 63.75 "/><path stroke-width="1" stroke-linecap="butt" stroke-miterlimit="3.25" stroke-linejoin="miter" fill="none" stroke="#000000" d="M 606 63.75 L 606 461.645 "/><path stroke-width="1" stroke-linecap="butt" stroke-miterlimit="3.25" stroke-linejoin="miter" fill="none" stroke="#000000" d="M 66 461.645 L 66 453.543 "/><path stroke-width="1" stroke-linecap="butt" stroke-miterlimit="3.25" stroke-linejoin="miter" fill="none" stroke="#000000" d="M 88.758 461.645 L 88.758 453.543 "/><path stroke-width="1" stroke-linecap="butt" stroke-miterlimit="3.25" stroke-linejoin="miter" fill="none" stroke="#000000" d="M 111.578 461.645 L 111.578 453.543 "/><path stroke-width="1" stroke-linecap="butt" stroke-miterlimit="3.25" stroke-linejoin="miter" fill="none" stroke="#000000" d="M 134.336 461.645 L 134.336 453.543 "/><path stroke-width="1" stroke-linecap="butt" stroke-miterlimit="3.25" stroke-linejoin="miter" fill="none" stroke="#000000" d="M 157.094 461.645 L 157.094 453.543 "/><path stroke-width="1" stroke-linecap="butt" stroke-miterlimit="3.25" stroke-linejoin="miter" fill="none" stroke="#000000" d="M 179.852 461.645 L 179.852 453.543 "/><path stroke-width="1" stroke-linecap="butt" stroke-miterlimit="3.25" stroke-linejoin="miter" fill="none" stroke="#000000" d="M 202.672 461.645 L 202.672 453.543 "/><path stroke-width="1" stroke-linecap="butt" stroke-miterlimit="3.25" stroke-linejoin="miter" fill="none" stroke="#000000" d="M 225.43 461.645 L 225.43 453.543 "/><path stroke-width="1" stroke-linecap="butt" stroke-miterlimit="3.25" stroke-linejoin="miter" fill="none" stroke="#000000" d="M 248.188 461.645 L 248.188 453.543 "/><path stroke-width="1" stroke-linecap="butt" stroke-miterlimit="3.25" stroke-linejoin="miter" fill="none" stroke="#000000" d="M 270.945 461.645 L 270.945 453.543 "/><path stroke-width="1" stroke-linecap="butt" stroke-miterlimit="3.25" stroke-linejoin="miter" fill="none" stroke="#000000" d="M 293.762 461.645 L 293.762 453.543 "/><path stroke-width="1" stroke-linecap="butt" stroke-miterlimit="3.25" stroke-linejoin="miter" fill="none" stroke="#000000" d="M 316.52 461.645 L 316.52 453.543 "/><path stroke-width="1" stroke-linecap="butt" stroke-miterlimit="3.25" stroke-linejoin="miter" fill="none" stroke="#000000" d="M 339.277 461.645 L 339.277 453.543 "/><path stroke-width="1" stroke-linecap="butt" stroke-miterlimit="3.25" stroke-linejoin="miter" fill="none" stroke="#000000" d="M 362.035 461.645 L 362.035 453.543 "/><path stroke-width="1" stroke-linecap="butt" stroke-miterlimit="3.25" stroke-linejoin="miter" fill="none" stroke="#000000" d="M 384.855 461.645 L 384.855 453.543 "/><path stroke-width="1" stroke-linecap="butt" stroke-miterlimit="3.25" stroke-linejoin="miter" fill="none" stroke="#000000" d="M 407.613 461.645 L 407.613 453.543 "/><path stroke-width="1" stroke-linecap="butt" stroke-miterlimit="3.25" stroke-linejoin="miter" fill="none" stroke="#000000" d="M 430.371 461.645 L 430.371 453.543 "/><path stroke-width="1" stroke-linecap="butt" stroke-miterlimit="3.25" stroke-linejoin="miter" fill="none" stroke="#000000" d="M 453.129 461.645 L 453.129 453.543 "/><path stroke-width="1" stroke-linecap="butt" stroke-miterlimit="3.25" stroke-linejoin="miter" fill="none" stroke="#000000" d="M 475.949 461.645 L 475.949 453.543 "/><path stroke-width="1" stroke-linecap="butt" stroke-miterlimit="3.25" stroke-linejoin="miter" fill="none" stroke="#000000" d="M 498.707 461.645 L 498.707 453.543 "/><path stroke-width="1" stroke-linecap="butt" stroke-miterlimit="3.25" stroke-linejoin="miter" fill="none" stroke="#000000" d="M 521.465 461.645 L 521.465 453.543 "/><path stroke-width="1" stroke-linecap="butt" stroke-miterlimit="3.25" stroke-linejoin="miter" fill="none" stroke="#000000" d="M 544.223 461.645 L 544.223 453.543 "/><path stroke-width="1" stroke-linecap="butt" stroke-miterlimit="3.25" stroke-linejoin="miter" fill="none" stroke="#000000" d="M 567.043 461.645 L 567.043 453.543 "/><path stroke-width="1" stroke-linecap="butt" stroke-miterlimit="3.25" stroke-linejoin="miter" fill="none" stroke="#000000" d="M 589.801 461.645 L 589.801 453.543 "/><text xml:space="preserve" transform="matrix(1 0 0 1 0 0)" font-size="20.000002" font-family="Arial"><tspan y="487.7502" x="464.98863 476.1086 487.2286 498.3486 373.88859 385.00859 396.12858 407.24858 282.80274 293.92274 305.04273 316.16273 191.7027 202.8227 213.94269 225.06269 100.61684 111.73684 122.85684 133.97684 556.0816 567.2016 578.3216 589.4416">202120172013200920052025</tspan><tspan y="468.57835" x="35.19727 46.317274 51.857275">0.5</tspan><tspan y="388.9994" x="35.19727 46.317274 51.857275">1.0</tspan><tspan y="309.42045" x="35.19727 46.317274 51.857275">1.5</tspan><tspan y="229.84149" x="35.19727 46.317274 51.857275">2.0</tspan><tspan y="150.26255" x="35.19727 46.317274 51.857275">2.5</tspan><tspan y="79.302738" x="45.21681">%</tspan><tspan y="468.57838" x="609.00009 620.12008 625.66006">0.5</tspan><tspan y="388.99943" x="609.00009 620.12008 625.66006">1.0</tspan><tspan y="309.42048" x="609.00009 620.12008 625.66006">1.5</tspan><tspan y="229.84152" x="609.00009 620.12008 625.66006">2.0</tspan><tspan y="150.26258" x="609.00009 620.12008 625.66006">2.5</tspan><tspan y="79.302768" x="609.00009">%</tspan></text><text xml:space="preserve" transform="matrix(1 0 0 1 0 0)" font-size="27.999999" font-family="Arial" font-weight="bold"><tspan y="27.083985" x="134.90625 155.12226 170.69025 187.77025 203.33824 218.90624 234.44623 254.66223 271.74223 288.8222 298.1462 315.2262 330.7942 341.6862 351.0102 368.09019 378.98219 403.87419 411.6302 428.71018 453.57417 470.65415 487.73414 503.30213 520.38217">Banks&#x2019;Non-performingLoans</tspan></text><text xml:space="preserve" transform="matrix(1 0 0 1 0 0)" font-size="20.000002" font-family="Arial"><tspan y="54.083986" x="64.5 78.94 90.060009 101.18001 111.18001 122.30001 126.74001 131.18001 142.3 153.42 158.95999 170.07999 186.75998 197.87998 202.31998 213.43997 224.55997 235.67996 245.67996 256.79997 267.91996 279.03996 285.69996 296.81996 302.35997 306.79997 317.91996 329.03996 339.03996 350.11997 360.11997 371.23997 382.35997 389.01997 405.69996 416.81996 428.61997 433.05998 444.17997 455.29997 466.41996 481.97996 493.09996 504.21995 520.87997 531.99996 543.11996 553.11996 564.2399 575.3599 585.3599 596.4799">Consolidatedglobaloperations,shareofloansandadvances</tspan></text><text xml:space="preserve" transform="matrix(1 0 0 1 0 0)" font-size="15.999999" font-family="Arial"><tspan y="519.2" x="63.55 74.206 83.102008 91.99801 97.32601 105.32601 114.222019 130.46202 141.11803 151.77404 163.32604 173.98204">Source:APRA.</tspan></text></g></svg>