<?xml version="1.0" encoding="utf-8" standalone="no"?>
<!DOCTYPE svg PUBLIC "-//W3C//DTD SVG 1.1//EN"
  "http://www.w3.org/Graphics/SVG/1.1/DTD/svg11.dtd">
<svg xmlns:xlink="http://www.w3.org/1999/xlink" width="376.240625pt" height="267.478554pt" viewBox="0 0 376.240625 267.478554" xmlns="http://www.w3.org/2000/svg" version="1.1">
 <metadata>
  <rdf:RDF xmlns:dc="http://purl.org/dc/elements/1.1/" xmlns:cc="http://creativecommons.org/ns#" xmlns:rdf="http://www.w3.org/1999/02/22-rdf-syntax-ns#">
   <cc:Work>
    <dc:type rdf:resource="http://purl.org/dc/dcmitype/StillImage"/>
    <dc:date>2025-08-07T16:04:59.445913</dc:date>
    <dc:format>image/svg+xml</dc:format>
    <dc:creator>
     <cc:Agent>
      <dc:title>Matplotlib v3.8.4, https://matplotlib.org/</dc:title>
     </cc:Agent>
    </dc:creator>
   </cc:Work>
  </rdf:RDF>
 </metadata>
 <defs>
  <style type="text/css">*{stroke-linejoin: round; stroke-linecap: butt}</style>
 </defs>
 <g id="figure_1">
  <g id="patch_1">
   <path d="M 0 267.478554 
L 376.240625 267.478554 
L 376.240625 0 
L 0 0 
z
" style="fill: #ffffff"/>
  </g>
  <g id="axes_1">
   <g id="patch_2">
    <path d="M 34.240625 228.439219 
L 369.040625 228.439219 
L 369.040625 10.999219 
L 34.240625 10.999219 
z
" style="fill: #ffffff"/>
   </g>
   <g id="matplotlib.axis_1">
    <g id="xtick_1">
     <g id="line2d_1">
      <defs>
       <path id="m2b8651fc8a" d="M 0 0 
L 0 3.5 
" style="stroke: #000000; stroke-width: 0.8"/>
      </defs>
      <g>
       <use xlink:href="#m2b8651fc8a" x="53.85651" y="228.439219" style="stroke: #000000; stroke-width: 0.8"/>
      </g>
     </g>
     <g id="text_1">
      <!-- 2013 -->
      <g transform="translate(34.390082 258.807993) rotate(-45) scale(0.1 -0.1)">
       <defs>
        <path id="DejaVuSans-32" d="M 1228 531 
L 3431 531 
L 3431 0 
L 469 0 
L 469 531 
Q 828 903 1448 1529 
Q 2069 2156 2228 2338 
Q 2531 2678 2651 2914 
Q 2772 3150 2772 3378 
Q 2772 3750 2511 3984 
Q 2250 4219 1831 4219 
Q 1534 4219 1204 4116 
Q 875 4013 500 3803 
L 500 4441 
Q 881 4594 1212 4672 
Q 1544 4750 1819 4750 
Q 2544 4750 2975 4387 
Q 3406 4025 3406 3419 
Q 3406 3131 3298 2873 
Q 3191 2616 2906 2266 
Q 2828 2175 2409 1742 
Q 1991 1309 1228 531 
z
" transform="scale(0.015625)"/>
        <path id="DejaVuSans-30" d="M 2034 4250 
Q 1547 4250 1301 3770 
Q 1056 3291 1056 2328 
Q 1056 1369 1301 889 
Q 1547 409 2034 409 
Q 2525 409 2770 889 
Q 3016 1369 3016 2328 
Q 3016 3291 2770 3770 
Q 2525 4250 2034 4250 
z
M 2034 4750 
Q 2819 4750 3233 4129 
Q 3647 3509 3647 2328 
Q 3647 1150 3233 529 
Q 2819 -91 2034 -91 
Q 1250 -91 836 529 
Q 422 1150 422 2328 
Q 422 3509 836 4129 
Q 1250 4750 2034 4750 
z
" transform="scale(0.015625)"/>
        <path id="DejaVuSans-31" d="M 794 531 
L 1825 531 
L 1825 4091 
L 703 3866 
L 703 4441 
L 1819 4666 
L 2450 4666 
L 2450 531 
L 3481 531 
L 3481 0 
L 794 0 
L 794 531 
z
" transform="scale(0.015625)"/>
        <path id="DejaVuSans-33" d="M 2597 2516 
Q 3050 2419 3304 2112 
Q 3559 1806 3559 1356 
Q 3559 666 3084 287 
Q 2609 -91 1734 -91 
Q 1441 -91 1130 -33 
Q 819 25 488 141 
L 488 750 
Q 750 597 1062 519 
Q 1375 441 1716 441 
Q 2309 441 2620 675 
Q 2931 909 2931 1356 
Q 2931 1769 2642 2001 
Q 2353 2234 1838 2234 
L 1294 2234 
L 1294 2753 
L 1863 2753 
Q 2328 2753 2575 2939 
Q 2822 3125 2822 3475 
Q 2822 3834 2567 4026 
Q 2313 4219 1838 4219 
Q 1578 4219 1281 4162 
Q 984 4106 628 3988 
L 628 4550 
Q 988 4650 1302 4700 
Q 1616 4750 1894 4750 
Q 2613 4750 3031 4423 
Q 3450 4097 3450 3541 
Q 3450 3153 3228 2886 
Q 3006 2619 2597 2516 
z
" transform="scale(0.015625)"/>
       </defs>
       <use xlink:href="#DejaVuSans-32"/>
       <use xlink:href="#DejaVuSans-30" x="63.623047"/>
       <use xlink:href="#DejaVuSans-31" x="127.246094"/>
       <use xlink:href="#DejaVuSans-33" x="190.869141"/>
      </g>
     </g>
    </g>
    <g id="xtick_2">
     <g id="line2d_2">
      <g>
       <use xlink:href="#m2b8651fc8a" x="79.746216" y="228.439219" style="stroke: #000000; stroke-width: 0.8"/>
      </g>
     </g>
     <g id="text_2">
      <!-- 2014 -->
      <g transform="translate(60.279787 258.807993) rotate(-45) scale(0.1 -0.1)">
       <defs>
        <path id="DejaVuSans-34" d="M 2419 4116 
L 825 1625 
L 2419 1625 
L 2419 4116 
z
M 2253 4666 
L 3047 4666 
L 3047 1625 
L 3713 1625 
L 3713 1100 
L 3047 1100 
L 3047 0 
L 2419 0 
L 2419 1100 
L 313 1100 
L 313 1709 
L 2253 4666 
z
" transform="scale(0.015625)"/>
       </defs>
       <use xlink:href="#DejaVuSans-32"/>
       <use xlink:href="#DejaVuSans-30" x="63.623047"/>
       <use xlink:href="#DejaVuSans-31" x="127.246094"/>
       <use xlink:href="#DejaVuSans-34" x="190.869141"/>
      </g>
     </g>
    </g>
    <g id="xtick_3">
     <g id="line2d_3">
      <g>
       <use xlink:href="#m2b8651fc8a" x="105.635922" y="228.439219" style="stroke: #000000; stroke-width: 0.8"/>
      </g>
     </g>
     <g id="text_3">
      <!-- 2015 -->
      <g transform="translate(86.169493 258.807993) rotate(-45) scale(0.1 -0.1)">
       <defs>
        <path id="DejaVuSans-35" d="M 691 4666 
L 3169 4666 
L 3169 4134 
L 1269 4134 
L 1269 2991 
Q 1406 3038 1543 3061 
Q 1681 3084 1819 3084 
Q 2600 3084 3056 2656 
Q 3513 2228 3513 1497 
Q 3513 744 3044 326 
Q 2575 -91 1722 -91 
Q 1428 -91 1123 -41 
Q 819 9 494 109 
L 494 744 
Q 775 591 1075 516 
Q 1375 441 1709 441 
Q 2250 441 2565 725 
Q 2881 1009 2881 1497 
Q 2881 1984 2565 2268 
Q 2250 2553 1709 2553 
Q 1456 2553 1204 2497 
Q 953 2441 691 2322 
L 691 4666 
z
" transform="scale(0.015625)"/>
       </defs>
       <use xlink:href="#DejaVuSans-32"/>
       <use xlink:href="#DejaVuSans-30" x="63.623047"/>
       <use xlink:href="#DejaVuSans-31" x="127.246094"/>
       <use xlink:href="#DejaVuSans-35" x="190.869141"/>
      </g>
     </g>
    </g>
    <g id="xtick_4">
     <g id="line2d_4">
      <g>
       <use xlink:href="#m2b8651fc8a" x="131.596558" y="228.439219" style="stroke: #000000; stroke-width: 0.8"/>
      </g>
     </g>
     <g id="text_4">
      <!-- 2016 -->
      <g transform="translate(112.130129 258.807993) rotate(-45) scale(0.1 -0.1)">
       <defs>
        <path id="DejaVuSans-36" d="M 2113 2584 
Q 1688 2584 1439 2293 
Q 1191 2003 1191 1497 
Q 1191 994 1439 701 
Q 1688 409 2113 409 
Q 2538 409 2786 701 
Q 3034 994 3034 1497 
Q 3034 2003 2786 2293 
Q 2538 2584 2113 2584 
z
M 3366 4563 
L 3366 3988 
Q 3128 4100 2886 4159 
Q 2644 4219 2406 4219 
Q 1781 4219 1451 3797 
Q 1122 3375 1075 2522 
Q 1259 2794 1537 2939 
Q 1816 3084 2150 3084 
Q 2853 3084 3261 2657 
Q 3669 2231 3669 1497 
Q 3669 778 3244 343 
Q 2819 -91 2113 -91 
Q 1303 -91 875 529 
Q 447 1150 447 2328 
Q 447 3434 972 4092 
Q 1497 4750 2381 4750 
Q 2619 4750 2861 4703 
Q 3103 4656 3366 4563 
z
" transform="scale(0.015625)"/>
       </defs>
       <use xlink:href="#DejaVuSans-32"/>
       <use xlink:href="#DejaVuSans-30" x="63.623047"/>
       <use xlink:href="#DejaVuSans-31" x="127.246094"/>
       <use xlink:href="#DejaVuSans-36" x="190.869141"/>
      </g>
     </g>
    </g>
    <g id="xtick_5">
     <g id="line2d_5">
      <g>
       <use xlink:href="#m2b8651fc8a" x="157.486264" y="228.439219" style="stroke: #000000; stroke-width: 0.8"/>
      </g>
     </g>
     <g id="text_5">
      <!-- 2017 -->
      <g transform="translate(138.019835 258.807993) rotate(-45) scale(0.1 -0.1)">
       <defs>
        <path id="DejaVuSans-37" d="M 525 4666 
L 3525 4666 
L 3525 4397 
L 1831 0 
L 1172 0 
L 2766 4134 
L 525 4134 
L 525 4666 
z
" transform="scale(0.015625)"/>
       </defs>
       <use xlink:href="#DejaVuSans-32"/>
       <use xlink:href="#DejaVuSans-30" x="63.623047"/>
       <use xlink:href="#DejaVuSans-31" x="127.246094"/>
       <use xlink:href="#DejaVuSans-37" x="190.869141"/>
      </g>
     </g>
    </g>
    <g id="xtick_6">
     <g id="line2d_6">
      <g>
       <use xlink:href="#m2b8651fc8a" x="183.37597" y="228.439219" style="stroke: #000000; stroke-width: 0.8"/>
      </g>
     </g>
     <g id="text_6">
      <!-- 2018 -->
      <g transform="translate(163.909541 258.807993) rotate(-45) scale(0.1 -0.1)">
       <defs>
        <path id="DejaVuSans-38" d="M 2034 2216 
Q 1584 2216 1326 1975 
Q 1069 1734 1069 1313 
Q 1069 891 1326 650 
Q 1584 409 2034 409 
Q 2484 409 2743 651 
Q 3003 894 3003 1313 
Q 3003 1734 2745 1975 
Q 2488 2216 2034 2216 
z
M 1403 2484 
Q 997 2584 770 2862 
Q 544 3141 544 3541 
Q 544 4100 942 4425 
Q 1341 4750 2034 4750 
Q 2731 4750 3128 4425 
Q 3525 4100 3525 3541 
Q 3525 3141 3298 2862 
Q 3072 2584 2669 2484 
Q 3125 2378 3379 2068 
Q 3634 1759 3634 1313 
Q 3634 634 3220 271 
Q 2806 -91 2034 -91 
Q 1263 -91 848 271 
Q 434 634 434 1313 
Q 434 1759 690 2068 
Q 947 2378 1403 2484 
z
M 1172 3481 
Q 1172 3119 1398 2916 
Q 1625 2713 2034 2713 
Q 2441 2713 2670 2916 
Q 2900 3119 2900 3481 
Q 2900 3844 2670 4047 
Q 2441 4250 2034 4250 
Q 1625 4250 1398 4047 
Q 1172 3844 1172 3481 
z
" transform="scale(0.015625)"/>
       </defs>
       <use xlink:href="#DejaVuSans-32"/>
       <use xlink:href="#DejaVuSans-30" x="63.623047"/>
       <use xlink:href="#DejaVuSans-31" x="127.246094"/>
       <use xlink:href="#DejaVuSans-38" x="190.869141"/>
      </g>
     </g>
    </g>
    <g id="xtick_7">
     <g id="line2d_7">
      <g>
       <use xlink:href="#m2b8651fc8a" x="209.265675" y="228.439219" style="stroke: #000000; stroke-width: 0.8"/>
      </g>
     </g>
     <g id="text_7">
      <!-- 2019 -->
      <g transform="translate(189.799247 258.807993) rotate(-45) scale(0.1 -0.1)">
       <defs>
        <path id="DejaVuSans-39" d="M 703 97 
L 703 672 
Q 941 559 1184 500 
Q 1428 441 1663 441 
Q 2288 441 2617 861 
Q 2947 1281 2994 2138 
Q 2813 1869 2534 1725 
Q 2256 1581 1919 1581 
Q 1219 1581 811 2004 
Q 403 2428 403 3163 
Q 403 3881 828 4315 
Q 1253 4750 1959 4750 
Q 2769 4750 3195 4129 
Q 3622 3509 3622 2328 
Q 3622 1225 3098 567 
Q 2575 -91 1691 -91 
Q 1453 -91 1209 -44 
Q 966 3 703 97 
z
M 1959 2075 
Q 2384 2075 2632 2365 
Q 2881 2656 2881 3163 
Q 2881 3666 2632 3958 
Q 2384 4250 1959 4250 
Q 1534 4250 1286 3958 
Q 1038 3666 1038 3163 
Q 1038 2656 1286 2365 
Q 1534 2075 1959 2075 
z
" transform="scale(0.015625)"/>
       </defs>
       <use xlink:href="#DejaVuSans-32"/>
       <use xlink:href="#DejaVuSans-30" x="63.623047"/>
       <use xlink:href="#DejaVuSans-31" x="127.246094"/>
       <use xlink:href="#DejaVuSans-39" x="190.869141"/>
      </g>
     </g>
    </g>
    <g id="xtick_8">
     <g id="line2d_8">
      <g>
       <use xlink:href="#m2b8651fc8a" x="235.226312" y="228.439219" style="stroke: #000000; stroke-width: 0.8"/>
      </g>
     </g>
     <g id="text_8">
      <!-- 2020 -->
      <g transform="translate(215.759883 258.807993) rotate(-45) scale(0.1 -0.1)">
       <use xlink:href="#DejaVuSans-32"/>
       <use xlink:href="#DejaVuSans-30" x="63.623047"/>
       <use xlink:href="#DejaVuSans-32" x="127.246094"/>
       <use xlink:href="#DejaVuSans-30" x="190.869141"/>
      </g>
     </g>
    </g>
    <g id="xtick_9">
     <g id="line2d_9">
      <g>
       <use xlink:href="#m2b8651fc8a" x="261.116017" y="228.439219" style="stroke: #000000; stroke-width: 0.8"/>
      </g>
     </g>
     <g id="text_9">
      <!-- 2021 -->
      <g transform="translate(241.649589 258.807993) rotate(-45) scale(0.1 -0.1)">
       <use xlink:href="#DejaVuSans-32"/>
       <use xlink:href="#DejaVuSans-30" x="63.623047"/>
       <use xlink:href="#DejaVuSans-32" x="127.246094"/>
       <use xlink:href="#DejaVuSans-31" x="190.869141"/>
      </g>
     </g>
    </g>
    <g id="xtick_10">
     <g id="line2d_10">
      <g>
       <use xlink:href="#m2b8651fc8a" x="287.005723" y="228.439219" style="stroke: #000000; stroke-width: 0.8"/>
      </g>
     </g>
     <g id="text_10">
      <!-- 2022 -->
      <g transform="translate(267.539294 258.807993) rotate(-45) scale(0.1 -0.1)">
       <use xlink:href="#DejaVuSans-32"/>
       <use xlink:href="#DejaVuSans-30" x="63.623047"/>
       <use xlink:href="#DejaVuSans-32" x="127.246094"/>
       <use xlink:href="#DejaVuSans-32" x="190.869141"/>
      </g>
     </g>
    </g>
    <g id="xtick_11">
     <g id="line2d_11">
      <g>
       <use xlink:href="#m2b8651fc8a" x="312.895429" y="228.439219" style="stroke: #000000; stroke-width: 0.8"/>
      </g>
     </g>
     <g id="text_11">
      <!-- 2023 -->
      <g transform="translate(293.429 258.807993) rotate(-45) scale(0.1 -0.1)">
       <use xlink:href="#DejaVuSans-32"/>
       <use xlink:href="#DejaVuSans-30" x="63.623047"/>
       <use xlink:href="#DejaVuSans-32" x="127.246094"/>
       <use xlink:href="#DejaVuSans-33" x="190.869141"/>
      </g>
     </g>
    </g>
    <g id="xtick_12">
     <g id="line2d_12">
      <g>
       <use xlink:href="#m2b8651fc8a" x="338.856065" y="228.439219" style="stroke: #000000; stroke-width: 0.8"/>
      </g>
     </g>
     <g id="text_12">
      <!-- 2024 -->
      <g transform="translate(319.389637 258.807993) rotate(-45) scale(0.1 -0.1)">
       <use xlink:href="#DejaVuSans-32"/>
       <use xlink:href="#DejaVuSans-30" x="63.623047"/>
       <use xlink:href="#DejaVuSans-32" x="127.246094"/>
       <use xlink:href="#DejaVuSans-34" x="190.869141"/>
      </g>
     </g>
    </g>
    <g id="xtick_13">
     <g id="line2d_13">
      <g>
       <use xlink:href="#m2b8651fc8a" x="364.745771" y="228.439219" style="stroke: #000000; stroke-width: 0.8"/>
      </g>
     </g>
     <g id="text_13">
      <!-- 2025 -->
      <g transform="translate(345.279342 258.807993) rotate(-45) scale(0.1 -0.1)">
       <use xlink:href="#DejaVuSans-32"/>
       <use xlink:href="#DejaVuSans-30" x="63.623047"/>
       <use xlink:href="#DejaVuSans-32" x="127.246094"/>
       <use xlink:href="#DejaVuSans-35" x="190.869141"/>
      </g>
     </g>
    </g>
   </g>
   <g id="matplotlib.axis_2">
    <g id="ytick_1">
     <g id="line2d_14">
      <path d="M 34.240625 228.439219 
L 369.040625 228.439219 
" clip-path="url(#p232baaf7f2)" style="fill: none; stroke-dasharray: 1,1.65; stroke-dashoffset: 0; stroke: #808080"/>
     </g>
     <g id="line2d_15">
      <defs>
       <path id="mce91bff59d" d="M 0 0 
L -3.5 0 
" style="stroke: #000000; stroke-width: 0.8"/>
      </defs>
      <g>
       <use xlink:href="#mce91bff59d" x="34.240625" y="228.439219" style="stroke: #000000; stroke-width: 0.8"/>
      </g>
     </g>
     <g id="text_14">
      <!-- 0 -->
      <g transform="translate(20.878125 232.238438) scale(0.1 -0.1)">
       <use xlink:href="#DejaVuSans-30"/>
      </g>
     </g>
    </g>
    <g id="ytick_2">
     <g id="line2d_16">
      <path d="M 34.240625 184.951219 
L 369.040625 184.951219 
" clip-path="url(#p232baaf7f2)" style="fill: none; stroke-dasharray: 1,1.65; stroke-dashoffset: 0; stroke: #808080"/>
     </g>
     <g id="line2d_17">
      <g>
       <use xlink:href="#mce91bff59d" x="34.240625" y="184.951219" style="stroke: #000000; stroke-width: 0.8"/>
      </g>
     </g>
     <g id="text_15">
      <!-- 1 -->
      <g transform="translate(20.878125 188.750437) scale(0.1 -0.1)">
       <use xlink:href="#DejaVuSans-31"/>
      </g>
     </g>
    </g>
    <g id="ytick_3">
     <g id="line2d_18">
      <path d="M 34.240625 141.463219 
L 369.040625 141.463219 
" clip-path="url(#p232baaf7f2)" style="fill: none; stroke-dasharray: 1,1.65; stroke-dashoffset: 0; stroke: #808080"/>
     </g>
     <g id="line2d_19">
      <g>
       <use xlink:href="#mce91bff59d" x="34.240625" y="141.463219" style="stroke: #000000; stroke-width: 0.8"/>
      </g>
     </g>
     <g id="text_16">
      <!-- 2 -->
      <g transform="translate(20.878125 145.262437) scale(0.1 -0.1)">
       <use xlink:href="#DejaVuSans-32"/>
      </g>
     </g>
    </g>
    <g id="ytick_4">
     <g id="line2d_20">
      <path d="M 34.240625 97.975219 
L 369.040625 97.975219 
" clip-path="url(#p232baaf7f2)" style="fill: none; stroke-dasharray: 1,1.65; stroke-dashoffset: 0; stroke: #808080"/>
     </g>
     <g id="line2d_21">
      <g>
       <use xlink:href="#mce91bff59d" x="34.240625" y="97.975219" style="stroke: #000000; stroke-width: 0.8"/>
      </g>
     </g>
     <g id="text_17">
      <!-- 3 -->
      <g transform="translate(20.878125 101.774438) scale(0.1 -0.1)">
       <use xlink:href="#DejaVuSans-33"/>
      </g>
     </g>
    </g>
    <g id="ytick_5">
     <g id="line2d_22">
      <path d="M 34.240625 54.487219 
L 369.040625 54.487219 
" clip-path="url(#p232baaf7f2)" style="fill: none; stroke-dasharray: 1,1.65; stroke-dashoffset: 0; stroke: #808080"/>
     </g>
     <g id="line2d_23">
      <g>
       <use xlink:href="#mce91bff59d" x="34.240625" y="54.487219" style="stroke: #000000; stroke-width: 0.8"/>
      </g>
     </g>
     <g id="text_18">
      <!-- 4 -->
      <g transform="translate(20.878125 58.286438) scale(0.1 -0.1)">
       <use xlink:href="#DejaVuSans-34"/>
      </g>
     </g>
    </g>
    <g id="ytick_6">
     <g id="line2d_24">
      <path d="M 34.240625 10.999219 
L 369.040625 10.999219 
" clip-path="url(#p232baaf7f2)" style="fill: none; stroke-dasharray: 1,1.65; stroke-dashoffset: 0; stroke: #808080"/>
     </g>
     <g id="line2d_25">
      <g>
       <use xlink:href="#mce91bff59d" x="34.240625" y="10.999219" style="stroke: #000000; stroke-width: 0.8"/>
      </g>
     </g>
     <g id="text_19">
      <!-- 5 -->
      <g transform="translate(20.878125 14.798438) scale(0.1 -0.1)">
       <use xlink:href="#DejaVuSans-35"/>
      </g>
     </g>
    </g>
    <g id="text_20">
     <!-- Yield (%) -->
     <g transform="translate(14.798437 141.862187) rotate(-90) scale(0.1 -0.1)">
      <defs>
       <path id="DejaVuSans-59" d="M -13 4666 
L 666 4666 
L 1959 2747 
L 3244 4666 
L 3922 4666 
L 2272 2222 
L 2272 0 
L 1638 0 
L 1638 2222 
L -13 4666 
z
" transform="scale(0.015625)"/>
       <path id="DejaVuSans-69" d="M 603 3500 
L 1178 3500 
L 1178 0 
L 603 0 
L 603 3500 
z
M 603 4863 
L 1178 4863 
L 1178 4134 
L 603 4134 
L 603 4863 
z
" transform="scale(0.015625)"/>
       <path id="DejaVuSans-65" d="M 3597 1894 
L 3597 1613 
L 953 1613 
Q 991 1019 1311 708 
Q 1631 397 2203 397 
Q 2534 397 2845 478 
Q 3156 559 3463 722 
L 3463 178 
Q 3153 47 2828 -22 
Q 2503 -91 2169 -91 
Q 1331 -91 842 396 
Q 353 884 353 1716 
Q 353 2575 817 3079 
Q 1281 3584 2069 3584 
Q 2775 3584 3186 3129 
Q 3597 2675 3597 1894 
z
M 3022 2063 
Q 3016 2534 2758 2815 
Q 2500 3097 2075 3097 
Q 1594 3097 1305 2825 
Q 1016 2553 972 2059 
L 3022 2063 
z
" transform="scale(0.015625)"/>
       <path id="DejaVuSans-6c" d="M 603 4863 
L 1178 4863 
L 1178 0 
L 603 0 
L 603 4863 
z
" transform="scale(0.015625)"/>
       <path id="DejaVuSans-64" d="M 2906 2969 
L 2906 4863 
L 3481 4863 
L 3481 0 
L 2906 0 
L 2906 525 
Q 2725 213 2448 61 
Q 2172 -91 1784 -91 
Q 1150 -91 751 415 
Q 353 922 353 1747 
Q 353 2572 751 3078 
Q 1150 3584 1784 3584 
Q 2172 3584 2448 3432 
Q 2725 3281 2906 2969 
z
M 947 1747 
Q 947 1113 1208 752 
Q 1469 391 1925 391 
Q 2381 391 2643 752 
Q 2906 1113 2906 1747 
Q 2906 2381 2643 2742 
Q 2381 3103 1925 3103 
Q 1469 3103 1208 2742 
Q 947 2381 947 1747 
z
" transform="scale(0.015625)"/>
       <path id="DejaVuSans-20" transform="scale(0.015625)"/>
       <path id="DejaVuSans-28" d="M 1984 4856 
Q 1566 4138 1362 3434 
Q 1159 2731 1159 2009 
Q 1159 1288 1364 580 
Q 1569 -128 1984 -844 
L 1484 -844 
Q 1016 -109 783 600 
Q 550 1309 550 2009 
Q 550 2706 781 3412 
Q 1013 4119 1484 4856 
L 1984 4856 
z
" transform="scale(0.015625)"/>
       <path id="DejaVuSans-25" d="M 4653 2053 
Q 4381 2053 4226 1822 
Q 4072 1591 4072 1178 
Q 4072 772 4226 539 
Q 4381 306 4653 306 
Q 4919 306 5073 539 
Q 5228 772 5228 1178 
Q 5228 1588 5073 1820 
Q 4919 2053 4653 2053 
z
M 4653 2450 
Q 5147 2450 5437 2106 
Q 5728 1763 5728 1178 
Q 5728 594 5436 251 
Q 5144 -91 4653 -91 
Q 4153 -91 3862 251 
Q 3572 594 3572 1178 
Q 3572 1766 3864 2108 
Q 4156 2450 4653 2450 
z
M 1428 4353 
Q 1159 4353 1004 4120 
Q 850 3888 850 3481 
Q 850 3069 1003 2837 
Q 1156 2606 1428 2606 
Q 1700 2606 1854 2837 
Q 2009 3069 2009 3481 
Q 2009 3884 1853 4118 
Q 1697 4353 1428 4353 
z
M 4250 4750 
L 4750 4750 
L 1831 -91 
L 1331 -91 
L 4250 4750 
z
M 1428 4750 
Q 1922 4750 2215 4408 
Q 2509 4066 2509 3481 
Q 2509 2891 2217 2550 
Q 1925 2209 1428 2209 
Q 931 2209 642 2551 
Q 353 2894 353 3481 
Q 353 4063 643 4406 
Q 934 4750 1428 4750 
z
" transform="scale(0.015625)"/>
       <path id="DejaVuSans-29" d="M 513 4856 
L 1013 4856 
Q 1481 4119 1714 3412 
Q 1947 2706 1947 2009 
Q 1947 1309 1714 600 
Q 1481 -109 1013 -844 
L 513 -844 
Q 928 -128 1133 580 
Q 1338 1288 1338 2009 
Q 1338 2731 1133 3434 
Q 928 4138 513 4856 
z
" transform="scale(0.015625)"/>
      </defs>
      <use xlink:href="#DejaVuSans-59"/>
      <use xlink:href="#DejaVuSans-69" x="57.458984"/>
      <use xlink:href="#DejaVuSans-65" x="85.242188"/>
      <use xlink:href="#DejaVuSans-6c" x="146.765625"/>
      <use xlink:href="#DejaVuSans-64" x="174.548828"/>
      <use xlink:href="#DejaVuSans-20" x="238.025391"/>
      <use xlink:href="#DejaVuSans-28" x="269.8125"/>
      <use xlink:href="#DejaVuSans-25" x="308.826172"/>
      <use xlink:href="#DejaVuSans-29" x="403.845703"/>
     </g>
    </g>
   </g>
   <g id="line2d_26">
    <path d="M 49.458807 111.543475 
L 51.657659 110.673715 
L 53.78558 107.803507 
L 55.984431 110.543251 
L 58.183283 112.717651 
L 60.169343 111.021619 
L 62.368194 109.456051 
L 64.496115 108.281875 
L 66.694967 112.369747 
L 68.822888 114.370195 
L 71.02174 118.414579 
L 73.220592 117.327379 
L 75.348513 112.630675 
L 77.547364 118.458067 
L 79.675285 119.240851 
L 81.874137 128.503795 
L 84.072989 135.070483 
L 86.059048 146.203411 
L 88.2579 148.899667 
L 90.385821 148.682227 
L 92.584673 141.419731 
L 94.712594 141.767635 
L 96.911446 145.116211 
L 99.110297 146.768755 
L 101.238218 147.942931 
L 103.43707 150.117331 
L 105.564991 141.767635 
L 107.763843 139.201843 
L 109.962694 143.550643 
L 112.019685 149.465011 
L 114.218536 143.898547 
L 116.346458 144.463891 
L 118.545309 157.205875 
L 120.67323 158.032147 
L 122.872082 160.206547 
L 125.070934 165.859987 
L 129.397706 155.509843 
L 131.525627 153.900787 
L 133.724479 148.247347 
L 135.923331 148.856179 
L 137.90939 149.986867 
L 140.108242 149.638963 
L 142.236163 155.770771 
L 144.435015 156.423091 
L 146.562936 156.423091 
L 148.761788 151.030579 
L 150.960639 151.204531 
L 153.08856 146.072947 
L 155.287412 145.594579 
L 157.415333 150.813139 
L 159.614185 145.768531 
L 161.813037 142.202515 
L 163.799096 143.289715 
L 165.997948 142.159027 
L 168.125869 138.462547 
L 170.324721 140.202067 
L 172.452642 139.375795 
L 174.651493 140.549971 
L 176.850345 141.593683 
L 178.978266 140.332531 
L 181.177118 141.419731 
L 183.305039 139.767187 
L 185.503891 143.855059 
L 187.702742 148.247347 
L 189.688802 152.857075 
L 194.015575 165.033715 
L 198.342347 184.603315 
L 200.541199 187.864915 
L 202.740051 196.692979 
L 204.867972 193.474867 
L 207.066824 197.258323 
L 209.194745 194.040211 
L 211.393596 193.692307 
L 213.592448 195.257875 
L 215.649438 198.128083 
L 217.84829 211.652851 
L 219.976211 218.697907 
L 224.302984 216.914899 
L 226.501836 217.088851 
L 228.700687 216.740947 
L 230.828608 218.697907 
L 233.02746 222.350899 
L 235.155381 224.264371 
L 237.354233 224.438323 
L 239.553084 225.003667 
L 241.539144 224.177395 
L 243.737996 224.481811 
L 245.865917 225.221107 
L 248.064769 225.264595 
L 250.19269 226.395283 
L 252.391541 226.525747 
L 256.718314 227.960851 
L 258.917166 221.263699 
L 261.045087 203.781523 
L 263.243938 205.521043 
L 265.44279 197.214835 
L 269.627702 170.208787 
L 271.755623 135.026995 
L 273.954474 115.283443 
L 276.082395 100.845427 
L 278.281247 111.760915 
L 280.480099 102.932851 
L 282.60802 87.233683 
L 284.806871 84.624403 
L 286.934792 89.582035 
L 289.133644 93.278515 
L 291.332496 91.191091 
L 293.318556 82.667443 
L 295.517407 94.626643 
L 297.645328 101.758675 
L 299.84418 88.059955 
L 301.972101 56.618131 
L 304.170953 51.356083 
L 306.369804 58.966483 
L 308.497725 57.096499 
L 310.696577 46.224499 
L 312.824498 43.441267 
L 315.02335 59.009971 
L 317.222202 62.010643 
L 321.478044 66.707347 
L 323.605965 58.488115 
L 325.804816 53.313043 
L 327.932737 54.008851 
L 330.131589 49.616563 
L 332.330441 69.925459 
L 334.458362 73.274035 
L 336.657214 61.314835 
L 338.785135 51.356083 
L 340.983986 60.184147 
L 343.182838 59.357875 
L 345.168898 62.923891 
L 347.367749 65.446195 
L 349.49567 83.493715 
L 351.694522 80.319091 
L 353.822443 86.059507 
L 353.822443 86.059507 
" clip-path="url(#p232baaf7f2)" style="fill: none; stroke: #008000; stroke-linecap: square"/>
   </g>
   <g id="line2d_27">
    <path d="M 49.458807 102.324019 
L 51.657659 100.062643 
L 53.78558 96.453139 
L 55.984431 99.540787 
L 58.183283 102.106579 
L 60.169343 100.019155 
L 62.368194 99.584275 
L 64.496115 97.888243 
L 66.694967 104.237491 
L 68.822888 106.890259 
L 71.02174 113.761363 
L 73.220592 113.022067 
L 75.348513 106.977235 
L 77.547364 115.283443 
L 79.675285 117.457843 
L 81.874137 129.590995 
L 84.072989 136.853491 
L 86.059048 146.725267 
L 88.2579 148.812691 
L 90.385821 150.117331 
L 92.584673 138.549523 
L 94.712594 140.245555 
L 96.911446 143.811571 
L 99.110297 146.725267 
L 101.238218 147.768979 
L 103.43707 148.682227 
L 105.564991 139.027891 
L 107.763843 137.375347 
L 112.019685 150.552211 
L 114.218536 143.507155 
L 116.346458 145.072723 
L 118.545309 157.727731 
L 120.67323 159.771667 
L 122.872082 162.250483 
L 125.070934 167.295091 
L 127.198855 160.641427 
L 129.397706 154.596595 
L 131.525627 150.378259 
L 133.724479 142.941811 
L 137.90939 144.202963 
L 140.108242 142.159027 
L 142.236163 150.117331 
L 144.435015 151.291507 
L 146.562936 151.769875 
L 148.761788 143.594131 
L 150.960639 144.072499 
L 153.08856 139.027891 
L 155.287412 138.549523 
L 157.415333 144.811795 
L 161.813037 133.939795 
L 163.799096 135.766291 
L 165.997948 137.201395 
L 168.125869 133.635379 
L 170.324721 134.113747 
L 172.452642 135.635827 
L 174.651493 137.679763 
L 176.850345 139.201843 
L 178.978266 138.679987 
L 181.177118 138.679987 
L 183.305039 136.505587 
L 185.503891 144.507379 
L 187.702742 151.117555 
L 189.688802 155.988211 
L 191.887654 162.076531 
L 194.015575 167.338579 
L 196.214426 176.036179 
L 198.342347 185.168659 
L 200.541199 188.386771 
L 202.740051 198.562963 
L 204.867972 194.605555 
L 207.066824 197.997619 
L 209.194745 195.127411 
L 211.393596 195.083923 
L 213.592448 196.040659 
L 215.649438 199.302259 
L 217.84829 211.957267 
L 219.976211 217.393267 
L 222.175063 217.697683 
L 226.501836 216.349555 
L 228.700687 216.697459 
L 230.828608 218.436979 
L 233.02746 222.263923 
L 235.155381 223.568563 
L 237.354233 223.786003 
L 239.553084 223.829491 
L 241.539144 223.612051 
L 243.737996 223.959955 
L 248.064769 223.829491 
L 250.19269 222.220435 
L 252.391541 221.568115 
L 254.590393 221.829043 
L 256.718314 220.350451 
L 258.917166 202.911763 
L 261.045087 187.299571 
L 263.243938 187.777939 
L 265.44279 178.514995 
L 267.42885 163.903027 
L 269.627702 146.507827 
L 271.755623 118.240627 
L 273.954474 102.845875 
L 276.082395 85.320211 
L 278.281247 97.670803 
L 280.480099 95.278963 
L 282.60802 80.362579 
L 284.806871 78.492595 
L 286.934792 86.059507 
L 289.133644 89.799475 
L 291.332496 88.929715 
L 293.318556 80.884435 
L 295.517407 92.669683 
L 297.645328 98.323123 
L 299.84418 89.321107 
L 301.972101 61.401811 
L 304.170953 55.574419 
L 306.369804 61.619251 
L 308.497725 58.618579 
L 310.696577 49.181683 
L 312.824498 46.398451 
L 315.02335 62.662963 
L 317.222202 65.750611 
L 319.279192 67.055251 
L 321.478044 69.534067 
L 323.605965 60.879955 
L 325.804816 55.835347 
L 327.932737 57.139987 
L 330.131589 53.052115 
L 332.330441 72.969619 
L 334.458362 76.448659 
L 336.657214 62.967379 
L 338.785135 51.269107 
L 340.983986 61.010419 
L 343.182838 58.488115 
L 345.168898 62.184595 
L 347.367749 64.837363 
L 349.49567 81.884659 
L 351.694522 78.362131 
L 353.822443 84.146035 
L 353.822443 84.146035 
" clip-path="url(#p232baaf7f2)" style="fill: none; stroke: #ff0000; stroke-linecap: square"/>
   </g>
   <g id="line2d_28">
    <path d="M 49.458807 83.580691 
L 51.657659 82.710931 
L 53.78558 77.883763 
L 55.984431 77.927251 
L 58.183283 80.188627 
L 60.169343 80.232115 
L 62.368194 80.101651 
L 64.496115 80.666995 
L 66.694967 89.277619 
L 68.822888 92.843635 
L 71.02174 100.714963 
L 73.220592 101.367283 
L 75.348513 96.192211 
L 77.547364 104.976787 
L 79.675285 108.107923 
L 81.874137 122.545939 
L 86.059048 140.941363 
L 90.385821 143.768083 
L 92.584673 129.677971 
L 94.712594 128.938675 
L 96.911446 132.591667 
L 99.110297 137.114419 
L 101.238218 137.070931 
L 103.43707 138.332083 
L 105.564991 129.330067 
L 107.763843 129.112627 
L 109.962694 135.070483 
L 112.019685 141.854611 
L 114.218536 135.635827 
L 116.346458 137.505811 
L 118.545309 148.769203 
L 120.67323 153.596371 
L 122.872082 158.206099 
L 125.070934 161.598163 
L 127.198855 154.727059 
L 129.397706 148.334323 
L 131.525627 140.767411 
L 133.724479 130.939123 
L 135.923331 132.287251 
L 137.90939 132.026323 
L 140.108242 128.677747 
L 142.236163 137.636275 
L 144.435015 139.288819 
L 146.562936 142.028563 
L 148.761788 132.243763 
L 150.960639 133.374451 
L 153.08856 128.547283 
L 155.287412 126.764275 
L 157.415333 133.983283 
L 159.614185 129.634483 
L 161.813037 123.720115 
L 163.799096 123.415699 
L 165.997948 125.938003 
L 168.125869 123.415699 
L 170.324721 123.415699 
L 172.452642 125.938003 
L 174.651493 128.851699 
L 176.850345 131.069587 
L 178.978266 130.678195 
L 181.177118 129.373555 
L 183.305039 127.547059 
L 185.503891 137.244883 
L 189.688802 152.639635 
L 191.887654 159.336787 
L 194.015575 164.033491 
L 196.214426 172.296211 
L 198.342347 182.081011 
L 200.541199 185.125171 
L 202.740051 197.432275 
L 204.867972 193.213939 
L 207.066824 195.127411 
L 209.194745 191.126515 
L 211.393596 190.430707 
L 213.592448 191.343955 
L 215.649438 196.345075 
L 217.84829 206.695219 
L 219.976211 210.130771 
L 222.175063 211.261459 
L 224.302984 210.913555 
L 226.501836 209.956819 
L 228.700687 209.956819 
L 230.828608 211.348435 
L 233.02746 215.784211 
L 235.155381 216.001651 
L 237.354233 213.522835 
L 239.553084 212.218195 
L 241.539144 207.347539 
L 243.737996 197.649715 
L 245.865917 198.345523 
L 248.064769 197.997619 
L 250.19269 196.606003 
L 252.391541 200.737363 
L 254.590393 203.433619 
L 256.718314 199.563187 
L 258.917166 180.384979 
L 261.045087 168.599731 
L 263.243938 170.861107 
L 265.44279 161.337235 
L 267.42885 149.595475 
L 269.627702 132.330739 
L 271.755623 107.803507 
L 273.954474 94.017811 
L 276.082395 76.448659 
L 278.281247 91.104115 
L 280.480099 91.495507 
L 282.60802 76.057267 
L 284.806871 71.447539 
L 286.934792 79.666771 
L 289.133644 84.667891 
L 291.332496 83.667667 
L 293.318556 77.753299 
L 295.517407 89.147155 
L 297.645328 95.583379 
L 299.84418 88.581811 
L 301.972101 64.054579 
L 304.170953 58.444627 
L 306.369804 60.662515 
L 308.497725 57.313939 
L 310.696577 44.267539 
L 312.824498 43.484755 
L 315.02335 60.575539 
L 317.222202 63.184819 
L 319.279192 64.098067 
L 321.478044 66.924787 
L 323.605965 58.096723 
L 325.804816 53.617459 
L 327.932737 55.530931 
L 330.131589 52.095379 
L 332.330441 70.142899 
L 334.458362 73.665427 
L 336.657214 59.183923 
L 338.785135 47.181235 
L 340.983986 57.357427 
L 343.182838 52.834675 
L 345.168898 56.096275 
L 347.367749 58.618579 
L 349.49567 71.882419 
L 351.694522 68.925235 
L 353.822443 75.230995 
L 353.822443 75.230995 
" clip-path="url(#p232baaf7f2)" style="fill: none; stroke: #0000ff; stroke-linecap: square"/>
   </g>
   <g id="line2d_29">
    <path d="M 49.458807 53.052115 
L 51.657659 54.095827 
L 53.78558 46.876819 
L 55.984431 43.093363 
L 58.183283 47.616115 
L 60.169343 49.964467 
L 62.368194 50.486323 
L 64.496115 53.313043 
L 66.694967 64.011091 
L 68.822888 66.968275 
L 71.02174 76.840051 
L 73.220592 79.275379 
L 75.348513 73.056595 
L 77.547364 83.015347 
L 79.675285 85.189747 
L 84.072989 114.413683 
L 86.059048 120.154099 
L 88.2579 120.806419 
L 90.385821 123.633139 
L 92.584673 103.106803 
L 94.712594 98.627539 
L 96.911446 101.367283 
L 99.110297 109.369075 
L 101.238218 109.977907 
L 103.43707 112.891603 
L 105.564991 102.802387 
L 107.763843 104.411443 
L 109.962694 110.673715 
L 112.019685 121.241299 
L 114.218536 117.066451 
L 116.346458 119.197363 
L 118.545309 127.460083 
L 120.67323 136.027219 
L 122.872082 144.246451 
L 125.070934 146.159923 
L 127.198855 141.289267 
L 129.397706 131.417491 
L 131.525627 118.197139 
L 133.724479 106.716307 
L 135.923331 110.543251 
L 137.90939 109.369075 
L 140.108242 106.498867 
L 142.236163 117.240403 
L 144.435015 117.631795 
L 146.562936 123.154771 
L 148.761788 112.587187 
L 150.960639 114.239731 
L 153.08856 110.586739 
L 155.287412 108.064435 
L 157.415333 116.892499 
L 159.614185 116.109715 
L 161.813037 108.977683 
L 163.799096 104.715859 
L 165.997948 110.456275 
L 168.125869 109.543027 
L 170.324721 107.107699 
L 172.452642 111.152083 
L 174.651493 113.761363 
L 176.850345 115.805299 
L 178.978266 114.022291 
L 181.177118 111.804403 
L 183.305039 111.760915 
L 185.503891 122.719891 
L 189.688802 135.983731 
L 191.887654 143.333203 
L 194.015575 147.334099 
L 196.214426 156.466579 
L 198.342347 168.164851 
L 200.541199 171.035059 
L 202.740051 186.734227 
L 204.867972 183.429139 
L 207.066824 183.342163 
L 209.194745 178.341043 
L 211.393596 176.166643 
L 213.592448 178.036627 
L 215.649438 185.647027 
L 217.84829 189.995827 
L 219.976211 191.300467 
L 222.175063 189.169555 
L 224.302984 188.082355 
L 226.501836 189.430483 
L 228.700687 189.082579 
L 230.828608 189.560947 
L 233.02746 193.561843 
L 235.155381 191.213491 
L 237.354233 185.994931 
L 239.553084 182.646355 
L 241.539144 170.426227 
L 243.737996 154.205203 
L 245.865917 155.553331 
L 248.064769 156.249139 
L 250.19269 161.859091 
L 252.391541 173.905267 
L 254.590393 179.080339 
L 256.718314 172.687603 
L 258.917166 154.074739 
L 261.045087 149.899891 
L 263.243938 158.467027 
L 265.44279 146.333875 
L 267.42885 136.636051 
L 269.627702 119.719219 
L 271.755623 97.627315 
L 273.954474 81.406291 
L 276.082395 64.619923 
L 278.281247 79.318867 
L 280.480099 82.276051 
L 282.60802 65.489683 
L 284.806871 58.009747 
L 286.934792 67.707571 
L 289.133644 74.013331 
L 291.332496 71.708467 
L 293.318556 67.446643 
L 295.517407 77.622835 
L 297.645328 83.058835 
L 299.84418 76.231219 
L 301.972101 58.140211 
L 304.170953 52.921651 
L 306.369804 48.920755 
L 308.497725 45.311251 
L 310.696577 26.959315 
L 312.824498 29.351155 
L 315.02335 46.354963 
L 317.222202 48.050995 
L 319.279192 48.355411 
L 321.478044 52.530259 
L 323.605965 42.832435 
L 325.804816 40.353619 
L 327.932737 43.963123 
L 330.131589 40.310131 
L 332.330441 55.530931 
L 334.458362 57.879283 
L 336.657214 42.875923 
L 338.785135 30.829747 
L 340.983986 40.875475 
L 343.182838 33.569491 
L 345.168898 36.091795 
L 347.367749 36.178771 
L 349.49567 42.875923 
L 351.694522 39.266419 
L 353.822443 45.441715 
L 353.822443 45.441715 
" clip-path="url(#p232baaf7f2)" style="fill: none; stroke: #ffa500; stroke-linecap: square"/>
   </g>
   <g id="patch_3">
    <path d="M 34.240625 228.439219 
L 34.240625 10.999219 
" style="fill: none; stroke: #000000; stroke-width: 0.8; stroke-linejoin: miter; stroke-linecap: square"/>
   </g>
   <g id="patch_4">
    <path d="M 369.040625 228.439219 
L 369.040625 10.999219 
" style="fill: none; stroke: #000000; stroke-width: 0.8; stroke-linejoin: miter; stroke-linecap: square"/>
   </g>
   <g id="patch_5">
    <path d="M 34.240625 228.439219 
L 369.040625 228.439219 
" style="fill: none; stroke: #000000; stroke-width: 0.8; stroke-linejoin: miter; stroke-linecap: square"/>
   </g>
   <g id="patch_6">
    <path d="M 34.240625 10.999219 
L 369.040625 10.999219 
" style="fill: none; stroke: #000000; stroke-width: 0.8; stroke-linejoin: miter; stroke-linecap: square"/>
   </g>
   <g id="legend_1">
    <g id="patch_7">
     <path d="M 41.240625 223.439219 
L 111.709375 223.439219 
Q 113.709375 223.439219 113.709375 221.439219 
L 113.709375 163.726719 
Q 113.709375 161.726719 111.709375 161.726719 
L 41.240625 161.726719 
Q 39.240625 161.726719 39.240625 163.726719 
L 39.240625 221.439219 
Q 39.240625 223.439219 41.240625 223.439219 
z
" style="fill: #ffffff; stroke: #cccccc; stroke-linejoin: miter"/>
    </g>
    <g id="line2d_30">
     <path d="M 43.240625 169.825156 
L 53.240625 169.825156 
L 63.240625 169.825156 
" style="fill: none; stroke: #008000; stroke-linecap: square"/>
    </g>
    <g id="text_21">
     <!-- 2-year -->
     <g transform="translate(71.240625 173.325156) scale(0.1 -0.1)">
      <defs>
       <path id="DejaVuSans-2d" d="M 313 2009 
L 1997 2009 
L 1997 1497 
L 313 1497 
L 313 2009 
z
" transform="scale(0.015625)"/>
       <path id="DejaVuSans-79" d="M 2059 -325 
Q 1816 -950 1584 -1140 
Q 1353 -1331 966 -1331 
L 506 -1331 
L 506 -850 
L 844 -850 
Q 1081 -850 1212 -737 
Q 1344 -625 1503 -206 
L 1606 56 
L 191 3500 
L 800 3500 
L 1894 763 
L 2988 3500 
L 3597 3500 
L 2059 -325 
z
" transform="scale(0.015625)"/>
       <path id="DejaVuSans-61" d="M 2194 1759 
Q 1497 1759 1228 1600 
Q 959 1441 959 1056 
Q 959 750 1161 570 
Q 1363 391 1709 391 
Q 2188 391 2477 730 
Q 2766 1069 2766 1631 
L 2766 1759 
L 2194 1759 
z
M 3341 1997 
L 3341 0 
L 2766 0 
L 2766 531 
Q 2569 213 2275 61 
Q 1981 -91 1556 -91 
Q 1019 -91 701 211 
Q 384 513 384 1019 
Q 384 1609 779 1909 
Q 1175 2209 1959 2209 
L 2766 2209 
L 2766 2266 
Q 2766 2663 2505 2880 
Q 2244 3097 1772 3097 
Q 1472 3097 1187 3025 
Q 903 2953 641 2809 
L 641 3341 
Q 956 3463 1253 3523 
Q 1550 3584 1831 3584 
Q 2591 3584 2966 3190 
Q 3341 2797 3341 1997 
z
" transform="scale(0.015625)"/>
       <path id="DejaVuSans-72" d="M 2631 2963 
Q 2534 3019 2420 3045 
Q 2306 3072 2169 3072 
Q 1681 3072 1420 2755 
Q 1159 2438 1159 1844 
L 1159 0 
L 581 0 
L 581 3500 
L 1159 3500 
L 1159 2956 
Q 1341 3275 1631 3429 
Q 1922 3584 2338 3584 
Q 2397 3584 2469 3576 
Q 2541 3569 2628 3553 
L 2631 2963 
z
" transform="scale(0.015625)"/>
      </defs>
      <use xlink:href="#DejaVuSans-32"/>
      <use xlink:href="#DejaVuSans-2d" x="63.623047"/>
      <use xlink:href="#DejaVuSans-79" x="97.957031"/>
      <use xlink:href="#DejaVuSans-65" x="157.136719"/>
      <use xlink:href="#DejaVuSans-61" x="218.660156"/>
      <use xlink:href="#DejaVuSans-72" x="279.939453"/>
     </g>
    </g>
    <g id="line2d_31">
     <path d="M 43.240625 184.503281 
L 53.240625 184.503281 
L 63.240625 184.503281 
" style="fill: none; stroke: #ff0000; stroke-linecap: square"/>
    </g>
    <g id="text_22">
     <!-- 3-year -->
     <g transform="translate(71.240625 188.003281) scale(0.1 -0.1)">
      <use xlink:href="#DejaVuSans-33"/>
      <use xlink:href="#DejaVuSans-2d" x="63.623047"/>
      <use xlink:href="#DejaVuSans-79" x="97.957031"/>
      <use xlink:href="#DejaVuSans-65" x="157.136719"/>
      <use xlink:href="#DejaVuSans-61" x="218.660156"/>
      <use xlink:href="#DejaVuSans-72" x="279.939453"/>
     </g>
    </g>
    <g id="line2d_32">
     <path d="M 43.240625 199.181406 
L 53.240625 199.181406 
L 63.240625 199.181406 
" style="fill: none; stroke: #0000ff; stroke-linecap: square"/>
    </g>
    <g id="text_23">
     <!-- 5-year -->
     <g transform="translate(71.240625 202.681406) scale(0.1 -0.1)">
      <use xlink:href="#DejaVuSans-35"/>
      <use xlink:href="#DejaVuSans-2d" x="63.623047"/>
      <use xlink:href="#DejaVuSans-79" x="97.957031"/>
      <use xlink:href="#DejaVuSans-65" x="157.136719"/>
      <use xlink:href="#DejaVuSans-61" x="218.660156"/>
      <use xlink:href="#DejaVuSans-72" x="279.939453"/>
     </g>
    </g>
    <g id="line2d_33">
     <path d="M 43.240625 213.859531 
L 53.240625 213.859531 
L 63.240625 213.859531 
" style="fill: none; stroke: #ffa500; stroke-linecap: square"/>
    </g>
    <g id="text_24">
     <!-- 10-year -->
     <g transform="translate(71.240625 217.359531) scale(0.1 -0.1)">
      <use xlink:href="#DejaVuSans-31"/>
      <use xlink:href="#DejaVuSans-30" x="63.623047"/>
      <use xlink:href="#DejaVuSans-2d" x="127.246094"/>
      <use xlink:href="#DejaVuSans-79" x="161.580078"/>
      <use xlink:href="#DejaVuSans-65" x="220.759766"/>
      <use xlink:href="#DejaVuSans-61" x="282.283203"/>
      <use xlink:href="#DejaVuSans-72" x="343.5625"/>
     </g>
    </g>
   </g>
  </g>
 </g>
 <defs>
  <clipPath id="p232baaf7f2">
   <rect x="34.240625" y="10.999219" width="334.8" height="217.44"/>
  </clipPath>
 </defs>
</svg>
